<svg width="1200" height="820" viewBox="0 0 1200 820" fill="none" xmlns="http://www.w3.org/2000/svg">
  <rect width="1200" height="820" rx="36" fill="#F6F1E8"/>
  <path d="M297 560C297 505.876 340.876 462 395 462H791C845.124 462 889 505.876 889 560V618C889 672.124 845.124 716 791 716H395C340.876 716 297 672.124 297 618V560Z" fill="#243848"/>
  <rect x="354" y="224" width="492" height="286" rx="44" fill="#B1ADA3"/>
  <rect x="432" y="160" width="336" height="84" rx="24" fill="#E8E0D0"/>
  <rect x="493" y="263" width="214" height="208" rx="24" fill="#D9D4CA"/>
  <circle cx="600" cy="367" r="72" fill="#F5F2EC" stroke="#66707A" stroke-width="16"/>
  <circle cx="600" cy="367" r="16" fill="#1F6A52"/>
  <path d="M463 582H737" stroke="#F6F1E8" stroke-width="18" stroke-linecap="round"/>
  <text x="600" y="102" fill="#1F6A52" font-family="Arial, sans-serif" font-size="36" font-weight="700" text-anchor="middle">Automatic Watch Winder Placeholder</text>
  <text x="600" y="774" fill="#5F594F" font-family="Arial, sans-serif" font-size="28" text-anchor="middle">Swap in a CAD render or prototype photo</text>
</svg>
